<svg id="visual" viewBox="0 0 900 600" width="900" height="600" xmlns="http://www.w3.org/2000/svg" xmlns:xlink="http://www.w3.org/1999/xlink" version="1.1"><rect x="0" y="0" width="900" height="600" fill="#292929"></rect><path d="M714 600L714.5 596.8C715 593.7 716 587.3 718.3 580.8C720.7 574.3 724.3 567.7 722.5 561.2C720.7 554.7 713.3 548.3 710.5 542C707.7 535.7 709.3 529.3 714.5 522.8C719.7 516.3 728.3 509.7 729 503.2C729.7 496.7 722.3 490.3 721 484C719.7 477.7 724.3 471.3 723.5 464.8C722.7 458.3 716.3 451.7 716.8 445.2C717.3 438.7 724.7 432.3 725.8 425.8C727 419.3 722 412.7 718.5 406.2C715 399.7 713 393.3 711.2 387C709.3 380.7 707.7 374.3 707.2 367.8C706.7 361.3 707.3 354.7 709.7 348.2C712 341.7 716 335.3 718.3 329C720.7 322.7 721.3 316.3 720 309.8C718.7 303.3 715.3 296.7 713.7 290.2C712 283.7 712 277.3 715.8 271C719.7 264.7 727.3 258.3 726.8 251.8C726.3 245.3 717.7 238.7 713.3 232.2C709 225.7 709 219.3 709.5 213C710 206.7 711 200.3 712.7 193.8C714.3 187.3 716.7 180.7 718.2 174.2C719.7 167.7 720.3 161.3 722.3 154.8C724.3 148.3 727.7 141.7 726.2 135.2C724.7 128.7 718.3 122.3 718.8 116C719.3 109.7 726.7 103.3 730.2 96.8C733.7 90.3 733.3 83.7 731.7 77.2C730 70.7 727 64.3 726.7 58C726.3 51.7 728.7 45.3 727.3 38.8C726 32.3 721 25.7 717.2 19.2C713.3 12.7 710.7 6.3 709.3 3.2L708 0L900 0L900 3.2C900 6.3 900 12.7 900 19.2C900 25.7 900 32.3 900 38.8C900 45.3 900 51.7 900 58C900 64.3 900 70.7 900 77.2C900 83.7 900 90.3 900 96.8C900 103.3 900 109.7 900 116C900 122.3 900 128.7 900 135.2C900 141.7 900 148.3 900 154.8C900 161.3 900 167.7 900 174.2C900 180.7 900 187.3 900 193.8C900 200.3 900 206.7 900 213C900 219.3 900 225.7 900 232.2C900 238.7 900 245.3 900 251.8C900 258.3 900 264.7 900 271C900 277.3 900 283.7 900 290.2C900 296.7 900 303.3 900 309.8C900 316.3 900 322.7 900 329C900 335.3 900 341.7 900 348.2C900 354.7 900 361.3 900 367.8C900 374.3 900 380.7 900 387C900 393.3 900 399.7 900 406.2C900 412.7 900 419.3 900 425.8C900 432.3 900 438.7 900 445.2C900 451.7 900 458.3 900 464.8C900 471.3 900 477.7 900 484C900 490.3 900 496.7 900 503.2C900 509.7 900 516.3 900 522.8C900 529.3 900 535.7 900 542C900 548.3 900 554.7 900 561.2C900 567.7 900 574.3 900 580.8C900 587.3 900 593.7 900 596.8L900 600Z" fill="#3e5d58" stroke-linecap="round" stroke-linejoin="miter"></path></svg>