<svg id="visual" viewBox="0 0 900 900" width="900" height="900" xmlns="http://www.w3.org/2000/svg" xmlns:xlink="http://www.w3.org/1999/xlink" version="1.1"><rect x="0" y="0" width="900" height="900" fill="#fff"></rect><defs><linearGradient id="grad1_0" x1="0%" y1="0%" x2="100%" y2="100%"><stop offset="30%" stop-color="#ffffff" stop-opacity="1"></stop><stop offset="70%" stop-color="#ffffff" stop-opacity="1"></stop></linearGradient></defs><defs><linearGradient id="grad2_0" x1="0%" y1="0%" x2="100%" y2="100%"><stop offset="30%" stop-color="#ffffff" stop-opacity="1"></stop><stop offset="70%" stop-color="#ffffff" stop-opacity="1"></stop></linearGradient></defs><g transform="translate(900, 0)"><path d="M0 381.8C-26.9 352.7 -53.9 323.5 -84.6 315.9C-115.4 308.2 -149.9 321.9 -185 320.4C-220.1 318.9 -255.8 302.2 -270 270C-284.2 237.8 -276.9 190.2 -267.6 154.5C-258.3 118.8 -246.9 94.9 -265.6 71.2C-284.3 47.4 -333.1 23.7 -381.8 0L0 0Z" fill="#92aca0"></path></g><g transform="translate(0, 900)"><path d="M0 -381.8C36.1 -384.9 72.2 -387.9 98.8 -368.8C125.4 -349.7 142.5 -308.5 164.5 -284.9C186.5 -261.3 213.5 -255.4 244 -244C274.4 -232.5 308.3 -215.5 329.1 -190C349.9 -164.5 357.5 -130.6 364.2 -97.6C370.8 -64.5 376.3 -32.3 381.8 0L0 0Z" fill="#92aca0"></path></g></svg>