<svg id="visual" viewBox="0 0 900 600" width="900" height="600" xmlns="http://www.w3.org/2000/svg" xmlns:xlink="http://www.w3.org/1999/xlink" version="1.1"><rect x="0" y="0" width="900" height="600" fill="#FFFFFF"></rect><defs><linearGradient id="grad1_0" x1="33.3%" y1="0%" x2="100%" y2="100%"><stop offset="20%" stop-color="#3e5d58" stop-opacity="1"></stop><stop offset="80%" stop-color="#3e5d58" stop-opacity="1"></stop></linearGradient></defs><defs><linearGradient id="grad1_1" x1="33.3%" y1="0%" x2="100%" y2="100%"><stop offset="20%" stop-color="#3e5d58" stop-opacity="1"></stop><stop offset="80%" stop-color="#7b908c" stop-opacity="1"></stop></linearGradient></defs><defs><linearGradient id="grad1_2" x1="33.3%" y1="0%" x2="100%" y2="100%"><stop offset="20%" stop-color="#bbc6c4" stop-opacity="1"></stop><stop offset="80%" stop-color="#7b908c" stop-opacity="1"></stop></linearGradient></defs><defs><linearGradient id="grad1_3" x1="33.3%" y1="0%" x2="100%" y2="100%"><stop offset="20%" stop-color="#bbc6c4" stop-opacity="1"></stop><stop offset="80%" stop-color="#ffffff" stop-opacity="1"></stop></linearGradient></defs><defs><linearGradient id="grad2_0" x1="0%" y1="0%" x2="66.7%" y2="100%"><stop offset="20%" stop-color="#3e5d58" stop-opacity="1"></stop><stop offset="80%" stop-color="#3e5d58" stop-opacity="1"></stop></linearGradient></defs><defs><linearGradient id="grad2_1" x1="0%" y1="0%" x2="66.7%" y2="100%"><stop offset="20%" stop-color="#7b908c" stop-opacity="1"></stop><stop offset="80%" stop-color="#3e5d58" stop-opacity="1"></stop></linearGradient></defs><defs><linearGradient id="grad2_2" x1="0%" y1="0%" x2="66.7%" y2="100%"><stop offset="20%" stop-color="#7b908c" stop-opacity="1"></stop><stop offset="80%" stop-color="#bbc6c4" stop-opacity="1"></stop></linearGradient></defs><defs><linearGradient id="grad2_3" x1="0%" y1="0%" x2="66.7%" y2="100%"><stop offset="20%" stop-color="#ffffff" stop-opacity="1"></stop><stop offset="80%" stop-color="#bbc6c4" stop-opacity="1"></stop></linearGradient></defs><g transform="translate(900, 0)"><path d="M0 486.7C-69.1 485.4 -138.2 484 -186.3 449.7C-234.4 415.3 -261.6 348 -299.1 299.1C-336.7 250.2 -384.6 219.7 -417.6 173C-450.6 126.2 -468.7 63.1 -486.7 0L0 0Z" fill="#dde2e1"></path><path d="M0 365.1C-51.8 364 -103.6 363 -139.7 337.3C-175.8 311.5 -196.2 261 -224.3 224.3C-252.5 187.7 -288.4 164.8 -313.2 129.7C-337.9 94.6 -351.5 47.3 -365.1 0L0 0Z" fill="#9aaba8"></path><path d="M0 243.4C-34.5 242.7 -69.1 242 -93.1 224.8C-117.2 207.7 -130.8 174 -149.6 149.6C-168.3 125.1 -192.3 109.9 -208.8 86.5C-225.3 63.1 -234.3 31.5 -243.4 0L0 0Z" fill="#5c7671"></path><path d="M0 121.7C-17.3 121.3 -34.5 121 -46.6 112.4C-58.6 103.8 -65.4 87 -74.8 74.8C-84.2 62.6 -96.1 54.9 -104.4 43.2C-112.6 31.5 -117.2 15.8 -121.7 0L0 0Z" fill="#3e5d58"></path></g><g transform="translate(0, 600)"><path d="M0 -486.7C49.9 -452.1 99.9 -417.4 166.1 -401C232.3 -384.5 314.8 -386.4 344.2 -344.2C373.6 -302 350 -215.9 364.9 -151.2C379.9 -86.5 433.3 -43.2 486.7 0L0 0Z" fill="#dde2e1"></path><path d="M0 -365.1C37.5 -339.1 74.9 -313 124.6 -300.7C174.2 -288.4 236.1 -289.8 258.1 -258.1C280.2 -226.5 262.5 -161.9 273.7 -113.4C284.9 -64.8 325 -32.4 365.1 0L0 0Z" fill="#9aaba8"></path><path d="M0 -243.4C25 -226 49.9 -208.7 83 -200.5C116.1 -192.3 157.4 -193.2 172.1 -172.1C186.8 -151 175 -107.9 182.5 -75.6C189.9 -43.2 216.7 -21.6 243.4 0L0 0Z" fill="#5c7671"></path><path d="M0 -121.7C12.5 -113 25 -104.3 41.5 -100.2C58.1 -96.1 78.7 -96.6 86 -86C93.4 -75.5 87.5 -54 91.2 -37.8C95 -21.6 108.3 -10.8 121.7 0L0 0Z" fill="#3e5d58"></path></g></svg>