<svg id="visual" viewBox="0 0 900 600" width="900" height="600" xmlns="http://www.w3.org/2000/svg" xmlns:xlink="http://www.w3.org/1999/xlink" version="1.1"><rect x="0" y="0" width="900" height="600" fill="#FFFFFF"></rect><defs><linearGradient id="grad1_0" x1="33.3%" y1="0%" x2="100%" y2="100%"><stop offset="20%" stop-color="#ffffff" stop-opacity="1"></stop><stop offset="80%" stop-color="#ffffff" stop-opacity="1"></stop></linearGradient></defs><defs><linearGradient id="grad2_0" x1="0%" y1="0%" x2="66.7%" y2="100%"><stop offset="20%" stop-color="#ffffff" stop-opacity="1"></stop><stop offset="80%" stop-color="#ffffff" stop-opacity="1"></stop></linearGradient></defs><g transform="translate(900, 0)"><path d="M0 324.5C-29.6 320.5 -59.3 316.4 -80.2 299.4C-101.2 282.5 -113.4 252.5 -140.5 243.4C-167.6 234.2 -209.6 245.7 -229.5 229.5C-249.3 213.2 -247.1 169 -233.8 135C-220.6 101 -196.3 77 -209.6 56.2C-222.9 35.3 -273.7 17.7 -324.5 0L0 0Z" fill="#3E5D58"></path></g><g transform="translate(0, 600)"><path d="M0 -324.5C15.1 -273.8 30.1 -223.1 59.3 -221.2C88.4 -219.3 131.6 -266.2 154 -266.7C176.4 -267.3 177.9 -221.5 199.4 -199.4C220.9 -177.3 262.3 -179 281 -162.2C299.8 -145.5 296 -110.3 299.4 -80.2C302.9 -50.1 313.7 -25.1 324.5 0L0 0Z" fill="#3E5D58"></path></g></svg>